<?xml version="1.0" encoding="UTF-8" standalone="no"?>
<svg
   xmlns:dc="http://purl.org/dc/elements/1.1/"
   xmlns:cc="http://creativecommons.org/ns#"
   xmlns:rdf="http://www.w3.org/1999/02/22-rdf-syntax-ns#"
   xmlns:svg="http://www.w3.org/2000/svg"
   xmlns="http://www.w3.org/2000/svg"
   xmlns:sodipodi="http://sodipodi.sourceforge.net/DTD/sodipodi-0.dtd"
   xmlns:inkscape="http://www.inkscape.org/namespaces/inkscape"
   version="1.1"
   width="1311.8418"
   height="582.58563"
   viewBox="0 0 1311.8418 582.58563"
   id="svg114"
   sodipodi:docname="destruction.svg"
   inkscape:version="0.92.4 (5da689c313, 2019-01-14)">
  <metadata
     id="metadata120">
    <rdf:RDF>
      <cc:Work
         rdf:about="">
        <dc:format>image/svg+xml</dc:format>
        <dc:type
           rdf:resource="http://purl.org/dc/dcmitype/StillImage" />
        <dc:title></dc:title>
      </cc:Work>
    </rdf:RDF>
  </metadata>
  <defs
     id="defs118" />
  <sodipodi:namedview
     pagecolor="#ffffff"
     bordercolor="#666666"
     borderopacity="1"
     objecttolerance="10"
     gridtolerance="10"
     guidetolerance="10"
     inkscape:pageopacity="0"
     inkscape:pageshadow="2"
     inkscape:window-width="1920"
     inkscape:window-height="1050"
     id="namedview116"
     showgrid="false"
     inkscape:zoom="0.63424947"
     inkscape:cx="726.66602"
     inkscape:cy="238.07584"
     inkscape:window-x="0"
     inkscape:window-y="0"
     inkscape:window-maximized="1"
     inkscape:current-layer="svg114" />
  <path
     style="font-family:none;mix-blend-mode:normal;fill:#d0d0ce;fill-opacity:1;fill-rule:nonzero;stroke:none;stroke-width:1;stroke-linecap:butt;stroke-linejoin:miter;stroke-miterlimit:10;stroke-dasharray:none;stroke-dashoffset:0"
     inkscape:connector-curvature="0"
     id="path6"
     d="m 49.27931,358.89277 c 15.65109,0.6984 30.33594,4.35666 44.05456,10.9748 13.71861,6.61813 25.58866,15.40602 35.61015,26.36366 6.33109,6.9225 11.73542,14.46949 16.21299,22.64097 l -4.36713,-2.15447 -14.03602,9.75415 -11.81822,0.0675 -9.94273,-1.80271 -9.9784,-0.71929 -9.05018,-1.71281 -9.12727,-3.71794 -10.85539,8.27133 -10.168,-7.88815 -8.09537,3.93523 -1.29779,0.0538 z" />
  <path
     style="font-family:none;mix-blend-mode:normal;fill:#d0d0ce;fill-opacity:1;fill-rule:nonzero;stroke:none;stroke-width:1;stroke-linecap:butt;stroke-linejoin:miter;stroke-miterlimit:10;stroke-dasharray:none;stroke-dashoffset:0"
     inkscape:connector-curvature="0"
     id="path12"
     d="m 677.21818,115.62936 c 11.60468,10.52501 20.55944,22.35921 26.86427,35.50262 6.30483,13.14341 9.79608,26.66006 10.47375,40.54998 0.67767,13.88991 -1.48121,27.68223 -6.47665,41.37696 -4.99544,13.69473 -12.86763,26.46789 -23.61657,38.31948 l -58.51723,-53.07291 c 5.82234,-6.41961 8.58275,-13.92875 8.28123,-22.5274 -0.30152,-8.59865 -3.66209,-15.80915 -10.08171,-21.6315 -6.41961,-5.82234 -13.923,-8.46504 -22.51017,-7.9281 -1.74888,0.10936 -3.44042,0.34071 -5.07462,0.69407 l -0.96818,-3.54407 3.61546,-8.85565 7.23178,-10.45708 10.6522,-6.97588 5.94188,-11.72566 9.44583,-10.62522 4.71306,-15.20018 6.174,-5.87553 c 11.91291,4.98714 23.19681,12.31249 33.85168,21.97606 z" />
  <path
     style="font-family:none;mix-blend-mode:normal;fill:#d0d0ce;fill-opacity:1;fill-rule:nonzero;stroke:none;stroke-width:1;stroke-linecap:butt;stroke-linejoin:miter;stroke-miterlimit:10;stroke-dasharray:none;stroke-dashoffset:0"
     inkscape:connector-curvature="0"
     id="path18"
     d="m 764.6866,398.55371 -36.63971,-67.72394 c -8.43056,-16.28336 -14.32346,-33.6554 -17.67867,-52.11612 -3.35522,-18.46072 -3.30641,-36.58388 0.14644,-54.36949 3.45285,-17.78561 10.77956,-34.54037 21.98013,-50.26429 1.2919,-1.81363 2.64385,-3.59547 4.05587,-5.34551 l 3.24239,3.21064 3.26969,12.44953 10.94061,9.58324 5.16241,10.0094 4.47387,7.96183 9.01137,11.46066 -0.92624,10.36055 2.04922,7.81202 10.08014,10.32941 1.1673,10.28531 6.3625,7.71136 3.2346,12.90536 -3.5338,12.16673 2.4409,13.86782 1.2651,8.96499 3.4671,13.84481 4.7555,11.97117 1.2399,13.39298 -8.5782,14.99608 6.5598,14.1047 -5.38,12.86306 1.1105,11.31414 -8.3808,8.36579 -5.0745,8.10524 c -7.12059,-8.81659 -13.72838,-18.22242 -19.82342,-28.2175 z" />
  <path
     style="font-family:none;mix-blend-mode:normal;fill:#d0d0ce;fill-opacity:1;fill-rule:nonzero;stroke:none;stroke-width:1;stroke-linecap:butt;stroke-linejoin:miter;stroke-miterlimit:10;stroke-dasharray:none;stroke-dashoffset:0"
     inkscape:connector-curvature="0"
     id="path24"
     d="m 1029.9465,426.73975 c -15.2208,0.57168 -30.29748,-2.01564 -45.22998,-7.76194 l 21.07928,-54.77742 1.543,2.24083 11.4328,1.06406 10.6067,10.27199 7.0178,6.18044 4.2024,11.5426 7.8741,6.61716 5.7969,13.03967 3.731,7.17698 c -9.0173,2.57331 -18.3686,4.04185 -28.054,4.40562 z" />
  <path
     style="font-family:none;mix-blend-mode:normal;fill:#d0d0ce;fill-opacity:1;fill-rule:nonzero;stroke:none;stroke-width:1;stroke-linecap:butt;stroke-linejoin:miter;stroke-miterlimit:10;stroke-dasharray:none;stroke-dashoffset:0"
     inkscape:connector-curvature="0"
     id="path28"
     d="m 1234.588,290.92723 c 2.4024,12.43677 2.9471,24.04414 1.634,34.82212 -1.3874,12.15033 -4.5693,23.79856 -9.5456,34.94467 -4.9764,11.14612 -11.5306,21.15416 -19.6626,30.02412 -8.132,8.86997 -17.5461,16.37499 -28.2424,22.51509 -10.6962,6.14009 -22.4264,10.44293 -35.1905,12.9085 -15.7095,3.03455 -30.9245,2.91809 -45.6447,-0.34939 -14.7202,-3.26748 -28.2307,-9.06022 -40.5316,-17.37822 -4.4734,-3.02501 -8.6986,-6.33371 -12.6755,-9.92609 l 4.1117,-6.96582 7.9904,-11.82332 1.4425,-10.18372 7.565,-9.67793 1.5256,-9.22604 3.0953,-14.4373 -5.1526,-10.26115 1.0836,-2.49561 24.8473,-4.79965 c 1.6438,8.50937 5.996,15.22244 13.0566,20.13923 7.0607,4.91678 14.8457,6.55332 23.3551,4.9096 6.8729,-1.32762 12.5325,-4.5427 16.9788,-9.64526 4.4463,-5.10256 7.0507,-10.95269 7.8132,-17.55039 0.5393,-2.48064 0.4613,-5.52102 -0.2341,-9.12114 -1.6437,-8.50937 -6.1066,-15.79519 -13.3885,-21.85746 -7.282,-6.06228 -15.1776,-8.27156 -23.687,-6.62784 l -23.5644,4.55183 -13.6554,-70.6932 23.5644,-4.55183 c 8.5093,-1.64371 15.0141,-6.63467 19.5144,-14.97286 4.5003,-8.33819 5.9285,-16.76197 4.2848,-25.27133 -0.6322,-3.27283 -1.6921,-6.12355 -3.1797,-8.55216 -3.1649,-5.83906 -7.7607,-10.29836 -13.7875,-13.37788 -6.0268,-3.07952 -12.4766,-3.95548 -19.3496,-2.62786 -8.5093,1.64371 -15.1406,5.9801 -19.8937,13.00916 -4.7532,7.02906 -6.3079,14.79827 -4.6642,23.30763 l -82.47538,15.93139 c -2.9713,-15.38232 -2.839,-30.5154 0.3968,-45.39926 3.2359,-14.88386 9.0128,-28.47621 17.3308,-40.77706 8.31798,-12.30085 18.69918,-22.70863 31.14348,-31.22335 12.4443,-8.51472 26.5212,-14.28936 42.2308,-17.32391 12.7641,-2.46557 25.2529,-2.84101 37.4664,-1.1263 12.2136,1.71471 23.7456,5.17367 34.596,10.37689 10.8505,5.20322 20.6605,12.05027 29.43,20.54115 5.275,5.10735 10.015,10.62511 14.2202,16.55328 l -0.8509,0.56291 0.678,10.34577 -6.374,8.53768 -9.7617,12.3486 -3.2796,9.18927 -1.4883,16.0297 -1.9114,8.83102 -11.1207,7.79509 -0.081,0.54727 -1.5083,1.12341 -4.6477,9.54752 2.4044,11.35561 -9.68,4.28676 -6.0157,9.90577 -3.2363,8.73703 4.8424,-5.07365 6.8188,-8.07408 10.4831,-2.45507 -1.6013,-9.52392 1.3093,-1.85341 0.1016,3.6656 10.742,6.9721 -3.4925,15.42086 3.1767,11.74346 -1.7,13.23291 3.8751,8.65929 2.4782,14.82764 3.8751,8.65929 -1.1004,9.15364 2.2804,12.83743 3.4733,14.72876 3.974,9.65439 0.01,-10.04987 -1.4831,-14.92651 -0.2902,-13.03517 3.0906,-9.35138 -1.8849,-8.85703 -0.488,-15.02538 -3.8751,-8.65929 1.7,-13.23291 -3.1767,-11.74346 3.4925,-15.42086 -10.742,-6.9721 -0.3749,-13.52041 3.9958,-2.2575 2.7146,-6.99933 2.2914,-14.19801 4.0826,-7.35758 10.5648,-10.51692 7.177,-6.706 0.1251,-8.51408 3.0799,-1.45531 c 2.7174,6.73777 4.8315,14.01689 6.3421,21.83734 2.592,13.41862 2.8168,26.44576 0.6744,39.08142 -2.1424,12.63567 -6.2243,24.45775 -12.2457,35.46624 9.6881,7.97394 17.8635,17.34346 24.5262,28.10855 6.6626,10.76509 11.2899,22.85694 13.8819,36.27556 z" />
  <path
     style="font-family:none;mix-blend-mode:normal;fill:none;fill-rule:nonzero;stroke:#00bb31;stroke-width:6;stroke-linecap:butt;stroke-linejoin:miter;stroke-miterlimit:10;stroke-dasharray:none;stroke-dashoffset:0"
     inkscape:connector-curvature="0"
     id="path32"
     d="" />
  <path
     style="font-family:none;mix-blend-mode:normal;fill:#d0d0ce;fill-opacity:1;fill-rule:nonzero;stroke:none;stroke-width:1;stroke-linecap:butt;stroke-linejoin:miter;stroke-miterlimit:10;stroke-dasharray:none;stroke-dashoffset:0"
     inkscape:connector-curvature="0"
     id="path34"
     d="m 925.97512,328.9261 c 12.0139,-7.88099 19.2792,-18.01343 21.796,-30.39731 2.5167,-12.38388 2.2337,-24.73225 -0.8492,-37.04513 l 82.22338,-11.65337 c 1.2444,6.59178 2.5028,15.26684 3.7752,26.02519 1.2724,10.75835 0.653,22.74612 -1.8581,35.96331 -2.5112,13.21719 -7.9679,27.10421 -16.3702,41.66106 -8.4022,14.55685 -21.62408,28.69611 -39.66548,42.41778 l -0.398,0.30268 c -20.1639,15.33599 -39.4993,25.01627 -58.0059,29.04085 -18.5067,4.02458 -36.1577,3.94332 -52.9529,-0.2438 -16.7952,-4.18712 -32.5805,-11.86444 -47.356,-23.03197 -5.8404,-4.4143 -11.5031,-9.11105 -16.988,-14.09025 l 3.7685,-8.78887 6.9954,-9.55449 -2.8362,-11.00903 3.3391,-13.53711 -8.6497,-12.92889 6.1713,-16.13633 -3.2836,-13.04328 -6.5389,-11.09802 -5.5538,-13.14743 -2.628,-8.66402 -4.5433,-13.32789 1.6218,-12.56531 -5.1797,-12.25487 -7.47205,-6.64184 -2.73431,-9.98368 -11.54794,-8.65739 -3.22556,-7.40424 -0.67715,-10.37981 -10.66577,-9.93947 -5.64442,-7.1796 -6.63949,-9.09702 -12.28353,-7.78783 -5.1443,-11.79907 -3.69733,-2.67415 c 8.63825,-14.92763 21.05498,-28.5502 37.2502,-40.8677 l 0.39797,-0.30268 c 16.18423,-12.30915 31.82848,-20.64791 46.93278,-25.01627 15.1043,-4.36837 29.5593,-6.14898 43.3651,-5.34183 10.7128,0.62632 20.8923,2.54079 30.5386,5.74341 l 0.4454,7.27561 -0.2007,9.37274 0.7856,10.38629 -2.2687,14.345 -2.1868,8.34555 5.7578,12.4543 3.7347,8.80097 -0.047,-7.2521 -3.9139,-11.67986 4.0308,-7.57112 4.1127,-13.57056 1.0584,-9.61185 2.0446,-8.5983 0.6589,-7.04736 c 9.767,4.49135 18.7437,9.5837 26.9303,15.27705 l -33.1887,76.12498 c -5.2241,-3.56494 -11.1461,-6.80851 -17.7659,-9.73071 -6.6198,-2.9222 -13.433,-4.85975 -20.4395,-5.81264 -7.0066,-0.95289 -13.9384,-0.70625 -20.7955,0.7399 -6.8571,1.44616 -12.9706,4.42068 -18.3404,8.92357 -12.7239,11.35252 -19.4493,24.94806 -20.1761,40.78664 -0.7268,15.83858 4.459,31.05404 15.5574,45.64638 l 43.8892,57.70607 c 11.0984,14.59234 24.5435,23.73544 40.3354,27.42929 15.7919,3.69385 30.8569,0.92579 45.1952,-8.30421 z" />
  <path
     style="font-family:none;mix-blend-mode:normal;fill:#aa0000;fill-rule:nonzero;stroke:none;stroke-width:1;stroke-linecap:butt;stroke-linejoin:miter;stroke-miterlimit:10;stroke-dasharray:none;stroke-dashoffset:0"
     inkscape:connector-curvature="0"
     id="path36"
     d="m 870.76162,74.49046 14.0122,5.6493" />
  <path
     style="font-family:none;mix-blend-mode:normal;fill:none;fill-rule:nonzero;stroke:#00bb31;stroke-width:6;stroke-linecap:butt;stroke-linejoin:miter;stroke-miterlimit:10;stroke-dasharray:none;stroke-dashoffset:0"
     inkscape:connector-curvature="0"
     id="path38"
     d="" />
  <path
     style="font-family:none;mix-blend-mode:normal;fill:#d0d0ce;fill-opacity:1;fill-rule:nonzero;stroke:none;stroke-width:1;stroke-linecap:butt;stroke-linejoin:miter;stroke-miterlimit:10;stroke-dasharray:none;stroke-dashoffset:0"
     inkscape:connector-curvature="0"
     id="path40"
     d="m 298.37378,399.20281 c -9.64869,8.20654 -19.48849,14.38764 -29.51941,18.54332 -11.26253,4.76561 -22.97008,7.72175 -35.12266,8.86843 -12.15258,1.14667 -24.08987,0.35986 -35.81188,-2.36044 -11.72201,-2.7203 -22.88582,-7.22816 -33.49142,-13.52357 -10.60561,-6.29541 -20.11966,-14.39442 -28.54216,-24.29702 -10.36615,-12.18782 -17.74521,-25.49407 -22.13718,-39.91876 -4.39197,-14.42469 -5.99022,-29.03756 -4.79475,-43.8386 0.76681,-9.49389 2.68186,-18.7491 5.74514,-27.76562 l 15.69448,3.90901 12.17034,-3.82766 9.75684,-1.54699 -8.34235,-2.19457 -11.4631,1.95688 -14.99063,-5.77211 c 1.03894,-2.4927 2.16829,-4.96661 3.38804,-7.42172 6.77703,-13.64081 16.25946,-25.6443 28.44728,-36.01045 l 54.42229,63.98605 c -6.60173,5.615 -10.30764,12.70536 -11.11773,21.27108 -0.81008,8.56572 1.59238,16.14945 7.20737,22.75118 4.53519,5.33217 10.11743,8.6798 16.74673,10.04289 6.62929,1.36309 13.004,0.75474 19.12411,-1.82505 2.42527,-0.74999 5.03443,-2.31278 7.82747,-4.68835 6.60173,-5.615 10.75199,-13.08329 12.45077,-22.40487 1.69878,-9.32158 -0.25933,-17.28324 -5.87433,-23.88498 l -15.54923,-18.28173 54.84518,-46.64768 15.54923,18.28173 c 5.615,6.60173 13.15919,9.81224 22.63258,9.63152 9.47339,-0.18072 17.51095,-3.07858 24.11269,-8.69358 2.53913,-2.15961 4.5004,-4.48414 5.88382,-6.97357 3.52858,-5.62675 5.15213,-11.82118 4.87066,-18.5833 -0.28147,-6.76212 -2.6898,-12.80927 -7.225,-18.14144 -5.615,-6.60173 -12.65137,-10.24417 -21.10911,-10.92729 -8.45774,-0.68313 -15.98748,1.78281 -22.58921,7.39781 l -12.87358,-15.13588 0.91346,-0.92345 3.24595,-8.39552 12.81738,-1.15151 2.31282,-13.4501 9.21473,-3.49557 7.7924,-4.91101 7.79516,-6.27067 8.50708,-5.4532 8.60612,-8.09997 3.63126,-16.70232 4.6648,-1.39759 c 5.15543,1.7092 10.22486,3.78824 15.20831,6.23712 13.53283,6.65008 25.48233,16.06903 35.84848,28.25684 8.4225,9.9026 14.88959,20.59315 19.40129,32.07164 4.5117,11.47849 7.16942,23.22106 7.97318,35.2277 0.80376,12.00665 -0.33546,23.91548 -3.41766,35.72649 -3.0822,11.81101 -7.87898,22.89237 -14.39036,33.24406 -5.71168,9.23393 -13.26492,17.84619 -22.65969,25.83676 -10.41043,8.85442 -21.64381,15.45503 -33.70016,19.80181 -12.05634,4.34679 -24.35779,6.60467 -36.90434,6.77364 -2.1804,12.35679 -6.31981,24.08242 -12.41824,35.17687 -6.09843,11.09446 -14.35286,21.06889 -24.76328,29.92332 z" />
  <path
     style="font-family:none;mix-blend-mode:normal;fill:none;fill-rule:nonzero;stroke:#00bb31;stroke-width:6;stroke-linecap:butt;stroke-linejoin:miter;stroke-miterlimit:10;stroke-dasharray:none;stroke-dashoffset:0"
     inkscape:connector-curvature="0"
     id="path44"
     d="" />
  <path
     style="font-family:none;mix-blend-mode:normal;fill:#d0d0ce;fill-opacity:1;fill-rule:nonzero;stroke:none;stroke-width:1;stroke-linecap:butt;stroke-linejoin:miter;stroke-miterlimit:10;stroke-dasharray:none;stroke-dashoffset:0"
     inkscape:connector-curvature="0"
     id="path46"
     d="m 664.60763,320.14882 c -1.20606,15.95448 -4.74025,30.64654 -10.60257,44.07619 -5.86232,13.42965 -13.75951,25.03405 -23.69158,34.8132 -9.93206,9.77916 -21.93812,17.14511 -36.01818,22.09787 -14.08006,4.95275 -30.09448,6.75072 -48.04327,5.39391 -17.94879,-1.35682 -33.86845,-5.23452 -47.75899,-11.63311 -13.89053,-6.39859 -25.38043,-14.70498 -34.46969,-24.91918 -9.08926,-10.2142 -15.80301,-22.00381 -20.14124,-35.36885 -4.33824,-13.36503 -5.92945,-27.69241 -4.77364,-42.98212 l 11.53294,-152.56471 c 1.00723,-13.32425 4.30907,-26.25715 9.90551,-38.79869 l 7.12618,1.47208 11.70863,-2.88748 14.98407,5.43547 16.71059,-9.38338 -14.76627,5.88772 -14.01191,-7.1833 -10.73647,1.13965 -6.80814,-3.00452 c 5.97911,-10.98182 13.56395,-20.68717 22.75453,-29.11605 10.77559,-9.88253 23.55464,-17.52434 38.33716,-22.92542 2.74643,-1.00346 5.54177,-1.89072 8.38602,-2.66179 l -1.26493,8.42852 5.61404,14.89097 -0.93064,14.18636 2.51062,12.90325 -4.1237,12.04688 0.71357,12.69409 2.5844,9.2095 2.94043,2.20266 c -4.19483,5.01428 -6.55236,10.96239 -7.07259,17.84435 l -0.49858,-0.0377 -3.99507,52.84921 c 0.84065,-2.27644 2.76784,-4.55432 5.78156,-6.83364 3.01372,-2.27931 6.49461,-4.10546 10.44267,-5.47843 3.94806,-1.37297 7.87727,-2.49666 11.78764,-3.37105 3.91037,-0.8744 7.19509,-1.21109 9.85417,-1.01008 33.90327,2.56288 59.05039,14.82666 75.44135,36.79134 16.39096,21.96469 23.26732,50.39724 20.62906,85.29767 z" />
  <path
     style="font-family:none;mix-blend-mode:normal;fill:#aa0000;fill-rule:nonzero;stroke:none;stroke-width:1;stroke-linecap:butt;stroke-linejoin:miter;stroke-miterlimit:10;stroke-dasharray:none;stroke-dashoffset:0"
     inkscape:connector-curvature="0"
     id="path104"
     d="m 460.54692,120.26333 4.20668,-8.52376" />
  <path
     style="font-family:none;mix-blend-mode:normal;fill:none;fill-rule:nonzero;stroke:#00bb31;stroke-width:6;stroke-linecap:butt;stroke-linejoin:miter;stroke-miterlimit:10;stroke-dasharray:none;stroke-dashoffset:0"
     inkscape:connector-curvature="0"
     id="path106"
     d="" />
  <path
     style="font-family:none;mix-blend-mode:normal;fill:#fe5000;fill-rule:nonzero;stroke:none;stroke-width:1;stroke-linecap:butt;stroke-linejoin:miter;stroke-miterlimit:10;stroke-dasharray:none;stroke-dashoffset:0;fill-opacity:1"
     inkscape:connector-curvature="0"
     id="path110"
     d="m 680.28532,507.71537 -0.58631,-16.78977 -45.57222,1.59142 2.59652,74.35468 45.57222,-1.59142 -0.58631,-16.78977 -28.78246,1.00511 -0.41879,-11.99269 21.18709,-0.73987 -0.58631,-16.78977 -21.18709,0.73987 -0.41879,-11.99269 z m -49.41717,74.87024 -3.65049,-104.53628 607.52964,-21.2154 3.6505,104.53628 z m 115.98992,-94.00525 -18.78855,0.65611 -8.91012,19.9231 -10.27818,-19.25303 -18.78855,0.65611 21.28608,36.47935 -18.68956,37.87533 18.78855,-0.65611 8.91012,-19.9231 10.27818,19.25303 18.78855,-0.65611 -21.28608,-36.47935 z m 44.57285,-1.55652 1.0051,28.78246 -19.88789,0.6945 -1.00511,-28.78246 -16.78977,0.58631 2.59652,74.35468 16.78977,-0.58631 -1.00511,-28.78246 19.88789,-0.6945 1.0051,28.78246 16.7898,-0.58631 -2.5965,-74.35468 z m 71.1703,52.34808 7.3799,19.35423 19.0884,-0.66658 -24.3833,-73.59387 -22.3863,0.78175 -19.1902,75.11549 19.0883,-0.66658 5.912,-19.8184 z m 90.7275,-58.10174 -17.2895,0.60376 1.5182,43.4735 c 0.063,1.7989 -0.061,3.50427 -0.3717,5.11609 -0.3106,1.61182 -0.8281,3.03075 -1.5524,4.25677 -0.7243,1.22603 -1.6739,2.20976 -2.8487,2.95122 -1.1749,0.74145 -2.5951,1.14126 -4.2608,1.19943 -1.6656,0.0582 -3.1103,-0.2416 -4.334,-0.89929 -1.2237,-0.65769 -2.2562,-1.57222 -3.0976,-2.74357 -0.8414,-1.17135 -1.4733,-2.55014 -1.8956,-4.13637 -0.4222,-1.58623 -0.6648,-3.2788 -0.7276,-5.0777 l -1.5181,-43.4735 -17.2895,0.60376 1.5635,44.77271 c 0.1373,3.93094 0.7518,7.67844 1.8435,11.24251 1.0917,3.56407 2.7519,6.69137 4.9804,9.3819 2.2286,2.69053 5.0698,4.77598 8.5236,6.25634 3.4538,1.48037 7.6113,2.10232 12.4727,1.86585 l 0.1,-0.003 c 4.3997,-0.0869 8.2402,-0.90479 11.5214,-2.45359 3.2813,-1.54879 5.992,-3.67802 8.1321,-6.38769 2.14,-2.70967 3.7291,-5.91708 4.7671,-9.62223 1.0379,-3.70515 1.4802,-7.75638 1.3266,-12.1537 z m 62.01078,53.66855 c -0.1326,-3.79769 -0.9135,-7.05575 -2.3426,-9.7742 -1.429,-2.71845 -3.2813,-5.13861 -5.5567,-7.26049 -2.2755,-2.12188 -4.8592,-3.99952 -7.75128,-5.63291 -2.8921,-1.6334 -5.9008,-3.26272 -9.0261,-4.88797 -2.2545,-1.52225 -3.915,-2.74838 -4.9814,-3.67839 -1.0665,-0.93001 -1.6218,-2.02797 -1.666,-3.29387 -0.058,-1.66565 0.4479,-2.93408 1.5181,-3.8053 1.0703,-0.87122 2.2716,-1.33009 3.6042,-1.37662 1.2659,-0.0442 2.3911,0.18333 3.3758,0.6826 0.9847,0.49927 1.8402,1.11979 2.5666,1.86156 0.7263,0.74177 1.305,1.5554 1.7362,2.44089 0.4312,0.88549 0.7595,1.69119 0.985,2.4171 l 14.48858,-6.30949 c -0.4029,-1.98715 -1.1729,-3.97816 -2.3099,-5.97303 -1.1369,-1.99487 -2.6828,-3.75866 -4.6375,-5.29138 -1.9546,-1.53272 -4.3325,-2.76715 -7.13348,-3.7033 -2.8011,-0.93615 -6.0338,-1.34024 -9.6983,-1.21228 -3.0624,0.17365 -6.011,0.74357 -8.8457,1.70975 -2.8347,0.96618 -5.3222,2.32049 -7.4627,4.06292 -2.1405,1.74243 -3.834,3.86949 -5.0804,6.38119 -1.2465,2.5117 -1.8127,5.39988 -1.6987,8.66456 0.1233,3.53118 0.842,6.44121 2.156,8.73008 1.314,2.28887 3.0863,4.32826 5.3168,6.11817 2.2305,1.78991 4.8245,3.48375 7.7821,5.0815 2.9575,1.59776 6.1748,3.46995 9.6519,5.61658 1.5696,1.0125 2.7877,1.98725 3.6542,2.92425 0.8666,0.93699 1.353,1.97065 1.4591,3.10097 0.1318,1.8632 -0.3368,3.24707 -1.4059,4.1516 -1.0691,0.90453 -2.1676,1.44319 -3.2956,1.616 -1.3256,0.24641 -2.5847,0.007 -3.7774,-0.71861 -1.1927,-0.72548 -2.2057,-1.5573 -3.039,-2.49546 -0.8332,-0.93816 -1.4815,-1.83275 -1.9448,-2.68376 -0.4633,-0.85102 -0.6295,-1.31216 -0.4986,-1.38344 l -15.7564,7.25431 c 0.7593,2.64178 1.9252,4.98585 3.4975,7.03222 1.5724,2.04637 3.4502,3.76522 5.6334,5.15654 2.1832,1.39132 4.6047,2.44079 7.2643,3.1484 2.6597,0.70761 5.4886,1.00907 8.4867,0.90437 3.8644,-0.13494 7.3132,-0.70566 10.34658,-1.71213 3.0334,-1.00648 5.6054,-2.33038 7.7161,-3.97171 2.1107,-1.64133 3.7456,-3.53287 4.9049,-5.67464 1.1593,-2.14176 1.7637,-4.41424 1.8132,-6.81743 z m 55.8209,-57.68326 -50.5692,1.76591 0.5863,16.78977 16.8897,-0.5898 2.0102,57.56491 16.7898,-0.58631 -2.0102,-57.56491 16.8897,-0.5898 z m 29.2802,73.42286 -2.5965,-74.35468 -16.7898,0.58631 2.5966,74.35468 z m 65.7187,-49.32359 c -0.1853,-3.3956 -0.9334,-6.67149 -2.2444,-9.82766 -1.3109,-3.15617 -3.2099,-5.95827 -5.6968,-8.4063 -2.8317,-2.76953 -6.0233,-4.85942 -9.5747,-6.26967 -3.5513,-1.41025 -7.2925,-2.04674 -11.2234,-1.90947 l -0.1,0.003 c -3.9309,0.13727 -7.6019,1.0326 -11.0129,2.68598 -3.4111,1.65338 -6.4657,3.9614 -9.164,6.92403 -2.2435,2.61322 -3.9406,5.59093 -5.0913,8.93313 -1.1508,3.3422 -1.6703,6.61232 -1.5586,9.81037 l 0.6073,17.3894 c 0.2062,3.99524 0.9206,7.73925 2.1433,11.23204 1.2226,3.49279 3.182,6.59297 5.8781,9.30052 2.8984,2.7672 6.1232,4.85593 9.6746,6.26618 3.5514,1.41025 7.2592,2.0479 11.1235,1.91296 l 0.1,-0.003 c 3.9309,-0.13727 7.6186,-1.03318 11.0629,-2.68773 3.4444,-1.65455 6.4812,-3.99529 9.1105,-7.02223 2.5673,-2.89136 4.3361,-6.20511 5.3063,-9.94124 0.9702,-3.73614 1.3925,-7.40311 1.2668,-11.00091 z m 45.7153,-29.01312 1.2738,36.47777 -21.1617,-35.78327 -17.0896,0.59678 2.5966,74.35468 17.7891,-0.62121 -1.2773,-36.5777 21.2651,35.87971 16.9897,-0.59329 -2.5965,-74.35468 z" />
  <path
     style="font-family:none;mix-blend-mode:normal;fill:#fe5000;fill-rule:nonzero;stroke:none;stroke-width:1;stroke-linecap:butt;stroke-linejoin:miter;stroke-miterlimit:10;stroke-dasharray:none;stroke-dashoffset:0;fill-opacity:1"
     inkscape:connector-curvature="0"
     id="path108"
     d="m 802.99172,446.53121 -13.5249,-30.44957 c 0.8655,0.0454 2.0874,-0.34122 3.6657,-1.15974 1.5784,-0.81852 3.1627,-2.07065 4.7531,-3.75639 1.5904,-1.68574 3.0029,-3.79805 4.2375,-6.33691 1.2346,-2.53887 1.9391,-5.47268 2.1135,-8.80145 0.1675,-3.19561 -0.039,-6.26062 -0.6196,-9.19503 -0.5805,-2.93441 -1.663,-5.52794 -3.2472,-7.78061 -1.5843,-2.25267 -3.7572,-4.10225 -6.5186,-5.54876 -2.7614,-1.4465 -6.2725,-2.28141 -10.5333,-2.50471 l -22.6689,-1.18803 -3.8938,74.29804 16.77698,0.87924 1.26653,-24.16683 0.19973,0.0105 8.71976,24.69019 z m -53.43895,12.72065 5.47434,-104.45665 484.13559,25.37247 -5.4743,104.45665 z m 113.87475,-67.2324 0.8792,-16.77698 -45.5375,-2.38652 -3.8938,74.29804 45.5375,2.38652 0.8793,-16.77698 -28.7606,-1.50728 0.6281,-11.98355 21.1709,1.10952 0.8793,-16.77698 -21.171,-1.10952 0.628,-11.98355 z m 58.0816,41.99732 c 0.1989,-3.79479 -0.295,-7.10852 -1.4817,-9.94117 -1.1867,-2.83266 -2.821,-5.40505 -4.9029,-7.71717 -2.0818,-2.31212 -4.4921,-4.40781 -7.2308,-6.28705 -2.7388,-1.87924 -5.594,-3.76459 -8.5657,-5.65605 -2.1133,-1.71295 -3.6606,-3.07913 -4.6419,-4.09855 -0.9813,-1.01942 -1.4388,-2.1616 -1.3726,-3.42653 0.087,-1.66438 0.7019,-2.88388 1.844,-3.65851 1.1422,-0.77462 2.3789,-1.12704 3.7105,-1.05726 1.2649,0.0663 2.3661,0.39104 3.3035,0.97423 0.9374,0.58319 1.7356,1.27592 2.3945,2.07817 0.6589,0.80225 1.1646,1.66323 1.5169,2.58293 0.3524,0.9197 0.6092,1.75095 0.7706,2.49374 l 14.9834,-5.02271 c -0.2282,-2.0147 -0.8217,-4.06524 -1.7805,-6.15161 -0.9588,-2.08637 -2.345,-3.97818 -4.1587,-5.67543 -1.8137,-1.69725 -4.0749,-3.13423 -6.7837,-4.31094 -2.7088,-1.17671 -5.894,-1.86102 -9.5556,-2.05292 -3.066,-0.0939 -6.053,0.21684 -8.9611,0.93229 -2.9081,0.71545 -5.5042,1.8478 -7.7885,3.39704 -2.2842,1.54924 -4.1566,3.52062 -5.6172,5.91412 -1.4606,2.3935 -2.2764,5.22135 -2.4473,8.48354 -0.1849,3.52849 0.2774,6.49008 1.3869,8.88476 1.1095,2.39468 2.6973,4.58078 4.7633,6.55828 2.066,1.9775 4.5025,3.89098 7.3096,5.74042 2.807,1.84944 5.8489,3.99492 9.1256,6.43642 1.4754,1.14545 2.6039,2.22266 3.3855,3.23161 0.7816,1.00896 1.1761,2.08107 1.1833,3.21634 -0.031,1.8676 -0.6186,3.20535 -1.7624,4.01326 -1.1439,0.80791 -2.2852,1.24878 -3.4239,1.32262 -1.342,0.12994 -2.5755,-0.21842 -3.7004,-1.04509 -1.125,-0.82667 -2.0616,-1.74362 -2.8099,-2.75083 -0.7483,-1.00721 -1.3162,-1.95489 -1.7035,-2.84305 -0.3874,-0.88816 -0.5128,-1.36204 -0.3762,-1.42163 l -16.3287,5.85344 c 0.5262,2.6979 1.4833,5.13467 2.8714,7.31029 1.388,2.17563 3.1088,4.05159 5.1625,5.6279 2.0536,1.57631 4.3744,2.83282 6.9623,3.76954 2.5878,0.93672 5.3797,1.48359 8.3756,1.64059 3.8613,0.20237 7.3468,-0.0656 10.4564,-0.80386 3.1095,-0.73827 5.7872,-1.83297 8.0329,-3.28409 2.2456,-1.45113 4.0393,-3.19297 5.3808,-5.22555 1.3416,-2.03257 2.1417,-4.24373 2.4005,-6.63346 z m 68.1896,-24.76518 c 0.1114,-3.39883 -0.3484,-6.72745 -1.3793,-9.98587 -1.0309,-3.25842 -2.6784,-6.21536 -4.9425,-8.87083 -2.5796,-3.00579 -5.5768,-5.36589 -8.9918,-7.0803 -3.4149,-1.71441 -7.0864,-2.67454 -11.0143,-2.88039 l -0.1,-0.005 c -3.9279,-0.20585 -7.663,0.36612 -11.2051,1.71592 -3.5422,1.3498 -6.7864,3.3828 -9.7326,6.099 -2.4627,2.40774 -4.4129,5.22621 -5.8505,8.45539 -1.4376,3.22919 -2.2402,6.44159 -2.4077,9.6372 l -0.9106,17.37615 c -0.1428,3.99801 0.2426,7.79004 1.1562,11.3761 0.9136,3.58606 2.5953,6.84521 5.0452,9.77745 2.6461,3.00928 5.6767,5.37112 9.0916,7.08553 3.415,1.71441 7.0531,2.67279 10.9145,2.87516 l 0.1,0.005 c 3.9279,0.20585 7.6796,-0.36525 11.255,-1.7133 3.5755,-1.34806 6.8048,-3.41522 9.6879,-6.20148 2.8095,-2.6566 4.8604,-5.80358 6.1525,-9.44094 1.2922,-3.63736 2.0324,-7.25357 2.2208,-10.84864 z m 65.35148,-24.11281 -17.2763,-0.90541 -2.2766,43.44038 c -0.094,1.79753 -0.3662,3.48561 -0.8161,5.06423 -0.45,1.57862 -1.0891,2.94704 -1.9175,4.10527 -0.8285,1.15823 -1.8602,2.05547 -3.0951,2.6917 -1.235,0.63624 -2.6847,0.91074 -4.3491,0.82352 -1.6644,-0.0872 -3.0774,-0.51176 -4.2392,-1.27361 -1.1617,-0.76184 -2.1106,-1.76288 -2.8467,-3.0031 -0.7361,-1.24022 -1.2453,-2.66883 -1.5278,-4.28583 -0.2824,-1.617 -0.3765,-3.32426 -0.2823,-5.1218 l 2.2766,-43.44038 -17.2763,-0.90541 -2.34458,44.7386 c -0.2059,3.92794 0.08,7.71474 0.8566,11.3604 0.77688,3.64566 2.15818,6.90575 4.14378,9.78027 1.9856,2.87453 4.6342,5.19966 7.9458,6.97541 3.3116,1.77575 7.3992,2.75769 12.2627,2.94581 l 0.1,0.005 c 4.3905,0.29685 8.2876,-0.18318 11.6914,-1.44009 3.4038,-1.25692 6.2897,-3.14179 8.6578,-5.65463 2.3681,-2.51284 4.2306,-5.56955 5.5876,-9.17014 1.357,-3.60058 2.1506,-7.59786 2.3809,-11.99183 z m 53.7219,77.41769 -13.5249,-30.44957 c 0.8654,0.0454 2.0874,-0.34122 3.6657,-1.15974 1.5783,-0.81852 3.1627,-2.07065 4.7531,-3.75639 1.5904,-1.68574 3.0029,-3.79805 4.2375,-6.33691 1.2345,-2.53887 1.939,-5.47268 2.1135,-8.80145 0.1675,-3.19561 -0.039,-6.26062 -0.6196,-9.19503 -0.5806,-2.93441 -1.663,-5.52794 -3.2473,-7.78061 -1.5842,-2.25267 -3.7571,-4.10225 -6.5185,-5.54876 -2.7614,-1.4465 -6.2725,-2.28141 -10.5333,-2.50471 l -22.6689,-1.18803 -3.8938,74.29804 16.7769,0.87924 1.2666,-24.16683 0.1997,0.0105 8.7198,24.69019 z m 39.5105,-14.45199 c -3.3814,-0.44424 -6.0386,-1.96873 -7.9716,-4.57347 -1.9329,-2.60473 -2.8035,-5.73792 -2.6116,-9.39956 l 0.7589,-14.48013 c 0.1919,-3.66164 1.3668,-6.65425 3.5247,-8.97784 2.1579,-2.32358 4.9414,-3.52955 8.3507,-3.61791 1.4016,0.007 2.7192,0.34278 3.9527,1.00825 1.2335,0.66547 2.3234,1.52369 3.2697,2.57465 0.9463,1.05097 1.7358,2.22723 2.3686,3.5288 0.6327,1.30157 1.1174,2.56199 1.4541,3.78128 l 14.904,-7.33003 c -0.6137,-2.30194 -1.5103,-4.61871 -2.6899,-6.95031 -1.1796,-2.3316 -2.7708,-4.45111 -4.7738,-6.35855 -2.0029,-1.90744 -4.4393,-3.50381 -7.3093,-4.78911 -2.87,-1.2853 -6.3356,-2.03436 -10.3967,-2.2472 l -0.1,-0.005 c -4.5937,-0.24075 -8.666,0.397 -12.2169,1.91324 -3.5509,1.51624 -6.548,3.61225 -8.9914,6.28804 -2.4434,2.67579 -4.341,5.76405 -5.6927,9.26477 -1.3517,3.50072 -2.1568,7.08016 -2.4153,10.73831 l -0.806,15.37889 c 0,3.87183 0.402,7.61481 1.214,11.22892 0.812,3.61411 2.2292,6.82602 4.2515,9.63571 2.0224,2.80969 4.7061,5.10329 8.051,6.88078 3.3449,1.77749 7.5472,2.79883 12.6069,3.06399 l 0.1,0.005 c 4.5272,0.23726 8.3726,-0.2121 11.5364,-1.34808 3.1638,-1.13598 5.7914,-2.5504 7.8829,-4.24326 2.0914,-1.69286 3.7353,-3.44256 4.9315,-5.2491 1.1962,-1.80654 2.1252,-3.29329 2.7872,-4.46024 l -14.0562,-8.84777 c -1.1207,2.2778 -2.6734,4.19917 -4.658,5.76412 -1.9847,1.56494 -4.4031,2.17254 -7.2554,1.82278 z m 82.7404,-36.82016 0.8793,-16.77698 -45.5375,-2.38652 -3.8938,74.29804 45.5375,2.38652 0.8792,-16.77698 -28.7605,-1.50728 0.628,-11.98355 21.1709,1.10952 0.8793,-16.77698 -21.171,-1.10952 0.6281,-11.98355 z" />
</svg>
